<svg width="11" height="10" viewBox="0 0 11 10" fill="none" xmlns="http://www.w3.org/2000/svg">
<path d="M5.91228 0.72209L6.79945 2.49644C6.92043 2.74344 7.24304 2.98035 7.51524 3.02572L9.12325 3.29288C10.1516 3.46427 10.3935 4.2103 9.65253 4.94625L8.40242 6.19636C8.19071 6.40807 8.07477 6.81638 8.1403 7.10874L8.49819 8.65625C8.78048 9.88116 8.13022 10.355 7.04645 9.71482L5.53926 8.8226C5.26706 8.6613 4.81843 8.6613 4.54119 8.8226L3.034 9.71482C1.95528 10.355 1.29998 9.87612 1.58226 8.65625L1.94016 7.10874C2.00569 6.81638 1.88975 6.40807 1.67804 6.19636L0.427927 4.94625C-0.308025 4.2103 -0.0711087 3.46427 0.957207 3.29288L2.56521 3.02572C2.83237 2.98035 3.15498 2.74344 3.27596 2.49644L4.16313 0.72209C4.64705 -0.240697 5.43341 -0.240697 5.91228 0.72209Z" fill="#FBBE21"/>
</svg>
